<svg width="152" height="40" viewBox="0 0 152 40" fill="none" xmlns="http://www.w3.org/2000/svg">
<g clip-path="url(#clip0_356_5)">
<path d="M91.2 22.8028C83.0905 21.4083 73.2387 20.5889 62.6071 20.5889C59.629 20.5889 56.7101 20.6528 53.8727 20.7778V17.5361C69.3317 17.8222 82.8259 19.8389 91.2 22.8028ZM36.1366 22.4556V17.9861C15.2619 19.4778 0 24.2278 0 29.8556C0 32.9889 4.73452 35.85 12.5287 38.0278L13.8292 35.7556C12.9763 34.8528 12.5231 33.9139 12.5231 32.9472C12.5231 28.5194 21.9584 24.6389 36.1394 22.4556H36.1366Z" fill="#D1B55F"/>
<path d="M104.987 3.06389C103.765 2.10278 102.282 1.35278 100.54 0.811112C98.7944 0.272223 96.8887 6.78236e-07 94.8198 6.78236e-07H71.5639C68.9461 6.78236e-07 66.2523 2.09445 65.5514 4.68056L61.9738 17.8556C73.7341 18.5639 83.859 20.2944 90.7271 22.6472C90.8819 22.6944 91.048 22.7389 91.2 22.7833C91.169 22.7806 91.1353 22.775 91.1043 22.7722C91.1353 22.7833 91.169 22.7944 91.2 22.8056C91.0452 22.7778 90.8876 22.7556 90.7299 22.7278C82.3953 21.6944 72.3745 21.3083 61.6107 21.7722C61.3742 21.7833 61.1378 21.7944 60.8985 21.8056L55.9585 40.0028H73.6918L78.5502 21.9833L83.4255 40.0028H101.179L96.1287 21.6861C97.9218 21.4444 99.5741 21.0667 101.083 20.5444C102.589 20.025 103.892 19.325 104.987 18.4417C106.082 17.5611 106.952 16.5 107.596 15.2583C108.241 14.0167 108.61 12.5361 108.703 10.8139C108.762 9.25278 108.463 7.81111 107.805 6.48889C107.146 5.16667 106.206 4.02778 104.987 3.06667V3.06389ZM92.9874 11.1111C92.5764 13.6722 91.4899 15.4944 89.7222 16.5778C87.9545 17.6583 85.8153 18.2 83.2988 18.2H79.5861L83.5831 3.48611H85.956C88.4696 3.48611 90.3584 4.19722 91.6138 5.61667C92.8692 7.03889 93.3252 8.86944 92.9818 11.1139L92.9874 11.1111ZM17.0522 30.1167C19.6024 28.8861 22.8281 27.7333 26.5916 26.6972L18.9887 40H11.4L17.0493 30.1167H17.0522ZM135.533 35C134.134 35 133 36.1194 133 37.5C133 38.8806 134.134 40 135.533 40C136.932 40 138.067 38.8806 138.067 37.5C138.067 36.1194 136.932 35 135.533 35ZM135.533 39.5833C134.368 39.5833 133.422 38.65 133.422 37.5C133.422 36.35 134.368 35.4167 135.533 35.4167C136.699 35.4167 137.644 36.35 137.644 37.5C137.644 38.65 136.699 39.5833 135.533 39.5833ZM152 6.78236e-07L151.744 0.947223C150.255 1.53056 148.926 2.26667 147.795 3.15556C147.201 3.62222 146.669 4.13889 146.176 4.68056H138.1L128.578 39.9972H110.847L120.432 4.68333L108.936 4.67778C109.637 2.09445 112.331 -0.0027771 114.949 -0.0027771H152.003L152 6.78236e-07ZM136.544 37.475C136.659 37.3444 136.716 37.1722 136.716 36.9611V36.9472C136.716 36.7167 136.642 36.5361 136.499 36.4028C136.307 36.2139 136.04 36.1194 135.694 36.1194H134.512V38.7361H135.015V37.8306H135.567L136.212 38.7361H136.814L136.099 37.7472C136.282 37.6972 136.428 37.6056 136.544 37.475ZM135.674 37.3972H135.015V36.5694H135.674C135.837 36.5694 135.967 36.6028 136.06 36.6722C136.153 36.7417 136.2 36.8417 136.2 36.975V36.9889C136.2 37.1139 136.153 37.2111 136.06 37.2861C135.967 37.3611 135.837 37.3972 135.674 37.3972ZM59.705 6.78236e-07L59.4489 0.944445C57.957 1.52778 56.6256 2.26389 55.4913 3.15833C54.8973 3.625 54.3653 4.14167 53.8727 4.68333V40H36.1394L36.1338 10L31.3345 18.3972C28.469 18.6833 25.733 19.0306 23.1575 19.4361L31.4133 4.99722C32.9924 2.23611 36.5391 -0.0027771 39.3399 -0.0027771H59.7079L59.705 6.78236e-07Z" fill="#45367D"/>
</g>
<defs>
<clipPath id="clip0_356_5">
<rect width="152" height="40" fill="white"/>
</clipPath>
</defs>
</svg>
